# xmcd
# 
# Track frame offsets:
#     150
#     16357
#     36647
#     48637
#     62557
#     75866
#     89348
#     102027
#     121744
#     137623
#     152895
#     171471
#     185004
#     198290
# 
# Disc length: 2898
# 
# Revision: 0
# Processed by: cddbd v1.5.2PL0 Copyright (c) Steve Scherf et al.
# Submitted via: fre:ac v1.0.27
# 
DISCID=b70b500e
DTITLE=Fraunhofer Saitenmusik - Aufwind
DYEAR=2016
DGENRE=Folk
TTITLE0=Brian Boru March
TTITLE1=Mazurka und Trüll Mazurka
TTITLE2=Tiroler Herzen (trad.)
TTITLE3=Marsch 13 und 14
TTITLE4=Galopp und Stopp Galopp
TTITLE5=Aria 1 und 2, mit Gavotte aus dem 18. Jh.
TTITLE6=Fynsk Polka und Rheinländer
TTITLE7=Alter walzer und Tambourin
TTITLE8=Carolans' Receipt or Dr. John Stafford
TTITLE9=Maya's CousCous Kuss und Sieben Ziegensprung
TTITLE10=Branles de Champaine und 2 Bourrées
TTITLE11=Harfenboarischer
TTITLE12=Polka la Sisina
TTITLE13=Liebeslied mit Variationen und Astrid Walzer
EXTD=
EXTT0=
EXTT1=
EXTT2=
EXTT3=
EXTT4=
EXTT5=
EXTT6=
EXTT7=
EXTT8=
EXTT9=
EXTT10=
EXTT11=
EXTT12=
EXTT13=
PLAYORDER=
